# Blender 3.5.0
# www.blender.org
mtllib broadLeafPlant.mtl
o BroadLeaf
v 0.001638 0.009048 -0.051040
v 0.002901 0.008017 0.046387
v 0.010504 0.002419 -0.050961
v 0.011783 0.001314 0.046443
v 0.007075 -0.008322 -0.050927
v 0.008379 -0.009485 0.046461
v -0.003969 -0.008251 -0.050968
v -0.002643 -0.009389 0.046426
v -0.007288 0.002417 -0.051050
v -0.005999 0.001370 0.046367
v 0.010865 -0.008668 0.087450
v 0.004018 -0.003935 0.089008
v 0.008034 -0.016302 0.084889
v -0.000555 -0.016290 0.084873
v -0.003049 -0.008658 0.087418
v 0.007947 -0.019660 0.103037
v 0.004749 -0.016270 0.104613
v 0.006724 -0.024917 0.100554
v 0.002766 -0.024788 0.100599
v 0.001547 -0.019449 0.103105
v 0.044831 -0.032594 0.120715
v 0.029040 -0.145298 0.120820
v -0.017530 -0.155732 0.118597
v -0.034590 -0.039438 0.121546
v 0.011182 -0.168178 0.112135
v -0.004144 -0.037830 0.116730
v -0.004523 -0.056783 0.120374
v 0.007547 -0.053942 0.119618
v 0.006441 -0.018207 0.107739
v 0.009628 -0.035482 0.111443
v 0.049642 -0.083433 0.127468
v -0.044085 -0.094992 0.130058
v 0.008277 -0.015990 0.108908
v 0.002457 -0.097706 0.126280
v -0.006187 -0.165152 0.115180
v -0.042592 -0.060387 0.126742
v 0.025186 -0.156523 0.119010
v 0.022817 -0.090595 0.130144
v -0.021909 -0.095391 0.131641
v 0.050655 -0.051688 0.124678
v -0.036344 -0.128170 0.126124
v 0.042595 -0.112808 0.126196
v -0.018239 -0.022857 0.114533
v 0.034261 -0.019914 0.117387
v 0.004242 -0.132759 0.118929
v -0.017017 -0.131338 0.124532
v 0.021045 -0.123017 0.124722
v -0.019343 -0.059228 0.125778
v 0.025995 -0.051814 0.123996
v 0.001144 -0.168222 0.113033
v -0.044654 -0.076737 0.129147
v 0.025896 -0.150895 0.119693
v 0.030242 -0.089271 0.129357
v -0.009625 -0.099900 0.125517
v 0.046907 -0.041436 0.122709
v -0.024424 -0.144832 0.122442
v 0.048253 -0.097491 0.127250
v -0.027480 -0.031431 0.118426
v 0.020142 -0.015659 0.114049
v 0.002750 -0.115992 0.121817
v -0.009914 -0.161974 0.115772
v -0.037524 -0.052555 0.124837
v 0.019870 -0.161639 0.117491
v 0.013774 -0.091975 0.130615
v -0.030350 -0.095581 0.131678
v 0.049494 -0.067684 0.126759
v -0.041134 -0.111842 0.128916
v 0.034469 -0.128835 0.123893
v 0.003837 -0.016729 0.107935
v 0.040742 -0.025250 0.118965
v 0.005232 -0.075550 0.125230
v 0.006400 -0.149409 0.116545
v -0.007644 -0.132938 0.122301
v -0.024319 -0.129592 0.125542
v -0.019976 -0.113281 0.129550
v -0.010709 -0.148382 0.118762
v 0.024864 -0.117220 0.126123
v 0.013635 -0.128322 0.122287
v 0.022492 -0.106561 0.128287
v 0.019547 -0.139532 0.120777
v -0.030123 -0.061040 0.127046
v -0.017402 -0.042346 0.120218
v -0.021481 -0.076756 0.130922
v 0.033430 -0.051751 0.124400
v 0.017764 -0.052531 0.122864
v 0.030634 -0.035030 0.119715
v 0.022734 -0.071577 0.128815
v 0.015143 -0.072371 0.128631
v 0.022313 -0.034623 0.117904
v 0.035791 -0.038927 0.121353
v -0.031275 -0.077356 0.130656
v -0.026790 -0.048760 0.123224
v 0.014137 -0.145012 0.118536
v 0.013498 -0.110726 0.126739
v 0.027855 -0.101668 0.128678
v -0.015686 -0.146304 0.120283
v -0.009852 -0.115064 0.126935
v -0.003050 -0.150488 0.116571
v 0.024677 -0.134002 0.122526
v -0.007518 -0.078183 0.127719
v 0.028095 -0.071561 0.128540
v -0.026825 -0.112915 0.129705
vn 0.6006 0.7995 0.0009
vn 0.9531 -0.3024 -0.0162
vn -0.0075 -0.9999 -0.0117
vn -0.9531 -0.3026 -0.0040
vn -0.9547 -0.2974 0.0095
vn -0.5973 0.8019 0.0164
vn 0.0046 -0.0054 -1.0000
vn -0.6106 0.5836 0.5353
vn 0.9482 -0.3136 -0.0513
vn -0.5795 0.7808 0.2333
vn 0.5884 0.7825 0.2038
vn -0.0050 -0.9845 -0.1756
vn -0.9023 -0.0513 -0.4280
vn -0.0110 -0.8782 -0.4781
vn 0.6353 0.5964 0.4906
vn -0.9535 -0.2958 0.0587
vn 0.9580 -0.2826 -0.0477
vn 0.0494 -0.5400 -0.8402
vn 0.8624 -0.2286 -0.4517
vn 0.0425 -0.2491 0.9676
vn -0.6402 0.5598 0.5261
vn 0.9297 0.3079 0.2023
vn 0.9297 0.3079 0.2022
vn 0.0775 0.0507 0.9957
vn 0.0760 -0.0346 0.9965
vn -0.0500 -0.1680 0.9845
vn 0.0578 -0.1988 0.9783
vn 0.3183 -0.1686 0.9329
vn 0.1108 -0.2073 0.9720
vn 0.0653 -0.1339 0.9888
vn -0.1059 -0.2240 0.9688
vn -0.1947 -0.1470 0.9698
vn 0.1630 0.2874 0.9438
vn 0.0830 0.2916 0.9529
vn -0.0146 0.0470 0.9988
vn -0.0382 0.2101 0.9769
vn -0.1726 0.2960 0.9395
vn 0.0060 0.0853 0.9963
vn -0.1055 0.2714 0.9567
vn -0.3587 0.2866 0.8884
vn -0.3789 0.1044 0.9195
vn -0.1836 0.1831 0.9658
vn -0.4290 0.1097 0.8966
vn -0.3930 0.3749 0.8396
vn -0.0706 0.1992 0.9774
vn -0.1154 0.1939 0.9742
vn -0.0780 0.2569 0.9633
vn 0.0175 0.2486 0.9685
vn 0.0176 0.2486 0.9684
vn -0.0596 0.1864 0.9807
vn -0.1124 0.0480 0.9925
vn 0.1302 0.2765 0.9522
vn 0.0907 0.2495 0.9641
vn 0.0182 0.2668 0.9636
vn 0.1930 0.2495 0.9489
vn 0.1760 0.3031 0.9366
vn 0.2426 0.2266 0.9433
vn -0.1675 -0.2178 0.9615
vn -0.2005 -0.1928 0.9605
vn -0.2695 -0.2244 0.9365
vn -0.0089 -0.1628 0.9866
vn -0.2871 -0.2105 0.9345
vn -0.2819 -0.2132 0.9355
vn 0.0948 -0.0472 0.9944
vn 0.0775 -0.0961 0.9923
vn 0.0321 -0.1920 0.9809
vn 0.1160 -0.2617 0.9581
vn 0.1010 -0.1990 0.9748
vn 0.1934 -0.2092 0.9585
vn 0.1775 -0.0889 0.9801
vn 0.3633 -0.0002 0.9317
vn 0.1975 -0.2277 0.9535
vn 0.1655 -0.1966 0.9664
vn 0.1906 -0.2551 0.9480
vn 0.2301 -0.1406 0.9630
vn 0.0111 -0.1797 0.9837
vn -0.0679 -0.2171 0.9738
vn -0.1112 -0.1557 0.9815
vn 0.0633 0.2807 0.9577
vn 0.2680 0.2621 0.9271
vn 0.3233 -0.0550 0.9447
vn 0.0213 0.1674 0.9857
vn -0.0112 0.2231 0.9747
vn 0.0761 0.0628 0.9951
vn 0.0112 -0.1129 0.9935
vn -0.0914 -0.1075 0.9900
vn -0.0278 -0.2120 0.9769
vt 1.000000 0.500000
vt 0.000000 0.500000
vt 0.750000 0.490000
vt 0.000000 1.000000
vt 1.000000 1.000000
vt 0.800000 0.500000
vt 0.978254 0.324164
vt 0.800000 1.000000
vt 0.600000 0.500000
vt 0.891068 0.055836
vt 0.600000 1.000000
vt 0.400000 0.500000
vt 0.608932 0.055836
vt 0.400000 1.000000
vt 0.200000 0.500000
vt 0.521746 0.324164
vt 0.200000 1.000000
vt 0.800000 1.000000
vt 0.000000 1.000000
vt 1.000000 1.000000
vt 0.600000 1.000000
vt 0.400000 1.000000
vt 0.200000 1.000000
vt 0.800000 1.000000
vt 0.000000 1.000000
vt 1.000000 1.000000
vt 0.600000 1.000000
vt 0.400000 1.000000
vt 0.200000 1.000000
vt 0.000000 1.000000
vt 1.000000 1.000000
vt 1.000000 0.000000
vt 0.000000 0.000000
vt 1.000000 0.500000
vt 0.200000 1.000000
vt 0.125000 0.375000
vt 0.400000 1.000000
vt 0.250000 0.375000
vt 0.600000 1.000000
vt 0.250000 0.500000
vt 0.000000 1.000000
vt 1.000000 1.000000
vt 0.000000 0.437500
vt 0.800000 1.000000
vt 0.125000 0.500000
vt 0.500000 1.000000
vt 0.500000 0.000000
vt 0.000000 0.500000
vt 0.500000 0.500000
vt 1.000000 0.250000
vt 0.250000 0.000000
vt 1.000000 0.750000
vt 0.500000 0.750000
vt 0.500000 0.250000
vt 0.250000 1.000000
vt 0.750000 0.000000
vt 0.750000 1.000000
vt 0.000000 0.250000
vt 0.000000 0.750000
vt 0.750000 0.500000
vt 0.750000 0.250000
vt 0.750000 0.750000
vt 0.250000 0.250000
vt 0.250000 0.750000
vt 1.000000 0.375000
vt 0.375000 0.000000
vt 1.000000 0.875000
vt 0.500000 0.875000
vt 0.500000 0.375000
vt 0.125000 1.000000
vt 0.875000 0.000000
vt 0.625000 1.000000
vt 0.000000 0.125000
vt 0.000000 0.625000
vt 0.625000 0.500000
vt 1.000000 0.125000
vt 0.125000 0.000000
vt 1.000000 0.625000
vt 0.500000 0.625000
vt 0.500000 0.125000
vt 0.375000 1.000000
vt 0.625000 0.000000
vt 0.875000 1.000000
vt 0.000000 0.375000
vt 0.000000 0.875000
vt 0.375000 0.500000
vt 0.875000 0.500000
vt 0.750000 0.375000
vt 0.750000 0.125000
vt 0.625000 0.250000
vt 0.875000 0.250000
vt 0.750000 0.875000
vt 0.750000 0.625000
vt 0.625000 0.750000
vt 0.875000 0.750000
vt 0.250000 0.125000
vt 0.125000 0.250000
vt 0.375000 0.250000
vt 0.250000 0.875000
vt 0.250000 0.625000
vt 0.125000 0.750000
vt 0.375000 0.750000
vt 0.375000 0.625000
vt 0.125000 0.625000
vt 0.125000 0.875000
vt 0.375000 0.125000
vt 0.125000 0.125000
vt 0.875000 0.625000
vt 0.625000 0.625000
vt 0.625000 0.875000
vt 0.875000 0.125000
vt 0.625000 0.375000
vt 0.875000 0.375000
vt 0.875000 0.875000
vt 0.375000 0.375000
vt 0.375000 0.875000
vt 0.625000 0.125000
s 0
f 1/1/1 2/5/1 4/8/1 3/6/1
f 3/6/2 4/8/2 6/11/2 5/9/2
f 5/9/3 6/11/3 8/14/3 7/12/3
f 10/17/4 8/14/4 14/22/4 15/23/4
f 7/12/5 8/14/5 10/17/5 9/15/5
f 9/15/6 10/17/6 2/4/6 1/2/6
f 1/3/7 3/7/7 5/10/7 7/13/7 9/16/7
f 12/19/8 15/23/8 20/29/8 17/25/8
f 6/11/9 4/8/9 11/18/9 13/21/9
f 2/4/10 10/17/10 15/23/10 12/19/10
f 4/8/11 2/5/11 12/20/11 11/18/11
f 8/14/12 6/11/12 13/21/12 14/22/12
f 20/29/13 19/28/13 27/37/13 26/35/13
f 14/22/14 13/21/14 18/27/14 19/28/14
f 11/18/15 12/20/15 17/26/15 16/24/15
f 15/23/16 14/22/16 19/28/16 20/29/16
f 13/21/17 11/18/17 16/24/17 18/27/17
f 19/28/18 18/27/18 28/39/18 27/37/18
f 18/27/19 16/24/19 30/44/19 28/39/19
f 102/117/20 74/89/20 46/61/20 75/90/20
f 17/25/21 20/29/21 26/35/21 29/41/21
f 16/24/22 17/26/22 29/42/23 30/44/23
f 101/116/24 53/68/24 31/46/24 66/81/24
f 100/115/25 54/69/25 34/49/25 71/86/25
f 99/114/26 52/67/26 22/31/26 68/83/26
f 98/113/27 50/65/27 25/34/27 72/87/27
f 97/112/28 73/88/28 45/60/28 60/75/28
f 96/111/29 61/76/29 35/50/29 76/91/29
f 95/110/30 77/92/30 42/57/30 57/72/30
f 94/109/31 78/93/31 47/62/31 79/94/31
f 93/108/32 63/78/32 37/52/32 80/95/32
f 26/36/33 27/38/33 28/40/33 30/45/33
f 92/107/34 81/96/34 48/63/34 82/97/34
f 91/106/35 65/80/35 39/54/35 83/98/35
f 90/105/36 84/99/36 40/55/36 55/70/36
f 89/104/37 85/100/37 49/64/37 86/101/37
f 88/103/38 64/79/38 38/53/38 87/102/38
f 85/100/39 88/103/39 87/102/39 49/64/39
f 28/40/40 71/86/40 88/103/40 85/100/40
f 71/86/41 34/49/41 64/79/41 88/103/41
f 59/74/42 89/104/42 86/101/42 44/59/42
f 33/48/43 30/45/43 89/104/43 59/74/43
f 30/45/44 28/40/44 85/100/44 89/104/44
f 70/85/45 90/105/45 55/70/45 21/30/45
f 44/59/46 86/101/46 90/105/46 70/85/46
f 86/101/47 49/64/47 84/99/47 90/105/47
f 81/96/48 91/106/48 83/98/48 48/63/49
f 36/51/50 51/66/50 91/106/50 81/96/50
f 51/66/51 32/47/51 65/80/51 91/106/51
f 58/73/52 92/107/52 82/97/52 43/58/52
f 24/33/53 62/77/53 92/107/53 58/73/53
f 62/77/54 36/51/54 81/96/54 92/107/54
f 69/84/55 26/36/55 30/45/55 33/48/55 29/43/55
f 43/58/56 82/97/56 26/36/56 69/84/56
f 82/97/57 48/63/57 27/38/57 26/36/57
f 78/93/58 93/108/58 80/95/58 47/62/58
f 45/60/59 72/87/59 93/108/59 78/93/59
f 72/87/60 25/34/60 63/78/60 93/108/60
f 64/79/61 94/109/61 79/94/61 38/53/61
f 34/49/62 60/75/62 94/109/62 64/79/62
f 60/75/63 45/60/63 78/93/63 94/109/63
f 53/68/64 95/110/64 57/72/64 31/46/64
f 38/53/65 79/94/65 95/110/65 53/68/65
f 79/94/66 47/62/66 77/92/66 95/110/66
f 74/89/67 96/111/67 76/91/67 46/61/67
f 41/56/68 56/71/68 96/111/68 74/89/68
f 56/71/69 23/32/69 61/76/69 96/111/69
f 54/69/70 97/112/70 60/75/70 34/49/70
f 39/54/71 75/90/71 97/112/71 54/69/71
f 75/90/72 46/61/72 73/88/72 97/112/72
f 73/88/73 98/113/73 72/87/73 45/60/73
f 46/61/74 76/91/74 98/113/74 73/88/74
f 76/91/75 35/50/75 50/65/75 98/113/75
f 77/92/76 99/114/76 68/83/76 42/57/76
f 47/62/77 80/95/77 99/114/77 77/92/77
f 80/95/78 37/52/78 52/67/78 99/114/78
f 27/38/79 100/115/79 71/86/79 28/40/79
f 48/63/80 83/98/80 100/115/80 27/38/80
f 83/98/81 39/54/81 54/69/81 100/115/81
f 84/99/82 101/116/82 66/81/82 40/55/82
f 49/64/83 87/102/83 101/116/83 84/99/83
f 87/102/84 38/53/84 53/68/84 101/116/84
f 65/80/85 102/117/85 75/90/85 39/54/85
f 32/47/86 67/82/86 102/117/86 65/80/86
f 67/82/87 41/56/87 74/89/87 102/117/87
